<?xml version="1.0" encoding="utf-8"?>
<!DOCTYPE svg PUBLIC "-//W3C//DTD SVG 1.1//EN" "http://www.w3.org/Graphics/SVG/1.1/DTD/svg11.dtd">
<svg version="1.1" xmlns="http://www.w3.org/2000/svg" xmlns:xlink="http://www.w3.org/1999/xlink" x="0pt" y="0pt" width="453.543pt" height="453.543pt" xml:space="preserve">
<clipPath id="clp1" fill="none">
	<path shape-rendering="crispEdges" stroke="#000000" d="M0,0h453.543v453.543H0z"/>
</clipPath>
<g clip-path="url(#clp1)" fill="none">
	<clipPath id="clp2">
		<path shape-rendering="crispEdges" stroke="#000000" d="M28.346,28.346v396.85h396.85V28.346H28.346z"/>
	</clipPath>
	<g clip-path="url(#clp2)">
		<clipPath id="clp3">
			<path shape-rendering="crispEdges" stroke="#000000" d="M-404.518-223.26h1262.58v900.063h-1262.58z"/>
		</clipPath>
		<g clip-path="url(#clp3)">
			<clipPath id="clp4">
				<path shape-rendering="crispEdges" stroke="#000000" d="M-404.518-223.26h1262.58v900.063h-1262.58z"/>
			</clipPath>
			<g clip-path="url(#clp4)">
				<g transform="matrix(1.47 0 0 -1.47 -404.5184 676.8033)">
					<path fill="#1A8AC6" d="M515.677,317.114c-17.901,27.571-91.116-0.038-91.116-0.038c20.322,6.537,41.147,11.446,55.755,3.295
						c5.744-3.207,12.592-9.762,12.592-22.793c0-6.008-3.587-13.684-9.438-22.065c-15.857-22.714-48.843-50.765-75.928-66.018
						c-13.595-7.655-27.057-13.692-36.971-17.77l14.434-11.815c8.224-6.733,21.682-6.733,29.905,0l55.484,44.979
						C515.648,266.367,529.13,296.393,515.677,317.114"/>
				</g>
				<g transform="matrix(1.47 0 0 -1.47 -404.5184 676.8033)">
					<path fill="#3DA7DA" d="M515.677,317.114c13.453-20.721-0.029-50.747-45.283-92.225l86.05,69.759
						c1.843,1.51,3.211,3.255,4.228,5.099c3.52,6.379,2.151,14.16-4.228,19.383l-82.732,69.541
						c-28.572-10.702-80.972-44.107-80.972-72.471c0-3.678,0.956-4.732,0.964-4.741c0.459-0.232,5.657-2.461,30.85,5.63l0.007-0.013
						C424.561,317.076,497.776,344.685,515.677,317.114"/>
				</g>
				<g transform="matrix(1.47 0 0 -1.47 -404.5184 676.8033)">
					<path fill="#6E9B38" d="M343.221,295.174c17.902-27.571,91.117,0.038,91.117,0.038c-20.323-6.536-41.148-11.446-55.755-3.295
						c-5.744,3.207-12.593,9.762-12.593,22.793c0,6.008,3.587,13.684,9.438,22.065c15.856,22.715,48.843,50.765,75.929,66.018
						c13.593,7.656,27.056,13.692,36.97,17.77l-14.433,11.815c-8.224,6.733-21.682,6.733-29.906,0l-55.483-44.979
						C343.251,345.922,329.768,315.895,343.221,295.174"/>
				</g>
				<g transform="matrix(1.47 0 0 -1.47 -404.5184 676.8033)">
					<path fill="#91C050" d="M343.221,295.174c-13.453,20.721,0.03,50.748,45.284,92.225l-86.05-69.759
						c-1.844-1.509-3.212-3.255-4.229-5.098c-3.519-6.379-2.151-14.161,4.229-19.384l82.731-69.541
						c28.573,10.702,80.972,44.108,80.972,72.471c0,3.679-0.956,4.732-0.964,4.741c-0.458,0.232-5.657,2.461-30.85-5.63
						l-0.006,0.013C434.338,295.212,361.123,267.603,343.221,295.174"/>
				</g>
			</g>
		</g>
	</g>
</g>
</svg>
